# xmcd
#
# Track frame offsets:
#	150
#	18840
#	34202
#	54945
#	69440
#	89232
#	103442
#	124337
#	150737
#	172125
#	202462
#	218752
#
# Disc length: 3113 seconds
#
# Revision: 1
# Processed by: cddbd v1.5.1PL2 Copyright (c) Steve Scherf et al.
# Submitted via: EasyCDDAExtractor 4.6.9.1
#
DISCID=b80c270c
DTITLE=Wade Bowen and West 84 - Try not to listen
DYEAR=2002
DGENRE=country
TTITLE0=In My Soul
TTITLE1=Prove It To You
TTITLE2=Why Can't You Love Me
TTITLE3=Walking Shoes
TTITLE4=Things I Could Do
TTITLE5=Good Time Tonight
TTITLE6=Please Come To Boston
TTITLE7=Man Out Of Myself
TTITLE8=Try Not To Listen
TTITLE9=Wonder
TTITLE10=Not Finished Yet
TTITLE11=Keep Hangin' On
EXTD=
EXTT0=
EXTT1=
EXTT2=
EXTT3=
EXTT4=
EXTT5=
EXTT6=
EXTT7=
EXTT8=
EXTT9=
EXTT10=
EXTT11=
PLAYORDER=
